<svg xmlns="http://www.w3.org/2000/svg" viewBox="0 0 1600 900" width="1600" height="900"><rect width="1600" height="900" fill="#dcd9d2"/><g fill="none" stroke="#111111" stroke-width="1.5"><path d="M280 640 A520 468 0 0 1 1320 640" stroke-width="2"/><path d="M380 640 A420 378 0 0 1 1220 640" stroke-width="1.5"/><path d="M480 640 A320 288 0 0 1 1120 640" stroke-width="1.5"/><path d="M580 640 A220 198 0 0 1 1020 640" stroke-width="1.5"/><path d="M680 640 A120 108 0 0 1 920 640" stroke-width="1.5"/><ellipse cx="800" cy="640" rx="520" ry="114" stroke-dasharray="8 8"/><path d="M800 172 Q 620.0 380 488.0 640" /><path d="M800 172 Q 710.0 380 644.0 640" /><path d="M800 172 Q 890.0 380 956.0 640" /><path d="M800 172 Q 980.0 380 1112.0 640" /></g><line x1="180" y1="640" x2="1420" y2="640" stroke="#1d31c9" stroke-width="4"/><g font-family="Space Mono, ui-monospace, Menlo, Consolas, monospace" font-size="26" font-weight="700" letter-spacing="2"><rect x="50" y="50" width="375" height="57" fill="#111111"/><text x="70" y="88" fill="#e7e5e0">PLACEHOLDER · 180°</text></g></svg>
